<svg id="Layer_5" enable-background="new 0 0 64 64" height="512" viewBox="0 0 64 64" width="512" xmlns="http://www.w3.org/2000/svg" xmlns:xlink="http://www.w3.org/1999/xlink"><linearGradient id="SVGID_1_" gradientUnits="userSpaceOnUse" x1="32" x2="32" y1="63" y2="1"><stop offset="0" stop-color="#9f2fff"/><stop offset="1" stop-color="#0bb1d3"/></linearGradient><path d="m58 1h-39.414l-12.586 12.586v49.414h52zm-40 3.414v8.586h-8.586zm38 56.586h-48v-46h12v-12h36zm-28.402-36.939-9.913 6.939h-5.685v-14h-2v42h44v-2h-2v-32h-8v32h-2v-28h-8v28h-2v-24h-8v24h-2v-20h-8v20h-2v-24h6.315l10.086-7.061 10.07-2.014 11.529-10.641v7.716h2v-11h-11v2h7.442l-10.914 10.075zm18.402 2.939h4v30h-4zm-10 4h4v26h-4zm-10 4h4v22h-4zm-10 4h4v18h-4z" fill="url(#SVGID_1_)"/></svg>